<svg width="26" height="21" viewBox="0 0 26 21" fill="none" xmlns="http://www.w3.org/2000/svg">
<path d="M9 15.5H12.5L15 15L20.5 7L20 6.5L19.5 6L18.5 4.5V3.5L18 2.5L16.5 1.5L12.5 0H8.5L7.5 1.5H7L5.5 2L5 2.5L4.5 4L4 5.5L3.5 7L3 9H2L1.5 10.5L1 14V15.5L1.5 16.5L2 17.5L2.5 18L4 17.5L5 17L5.5 16L6.5 15.5H9Z" fill="#0C81F3"/>
<path d="M9.55238 0.791667C9.55238 0.354441 9.21465 0 8.79801 0H7.03453C5.73571 0 4.58262 0.872179 4.17191 2.16529L3.04737 5.7057L2.46173 5.35084C2.10092 5.13226 1.63955 5.26197 1.43124 5.64062C1.22293 6.01928 1.34655 6.50346 1.70736 6.72204L2.56038 7.23892L2.43827 7.62335C1.28206 8.2996 0.5 9.59563 0.5 11.0833V15.8333C0.5 17.5822 1.85096 19 3.51746 19C5.05621 19 6.32596 17.7912 6.51157 16.2292H13.3772C13.1071 15.7391 12.8977 15.2076 12.76 14.6458H5.78055C5.36392 14.6458 5.02619 15.0003 5.02619 15.4375V15.8333C5.02619 16.7078 4.35069 17.4167 3.51746 17.4167C2.68421 17.4167 2.00873 16.7078 2.00873 15.8333V11.0833C2.00873 9.77166 3.02195 8.70833 4.27182 8.70833H14.2223C14.8504 8.01226 15.6275 7.46577 16.5 7.125H4.18692L5.6032 2.66598C5.80858 2.01942 6.3851 1.58333 7.03453 1.58333H8.79801C9.21465 1.58333 9.55238 1.2289 9.55238 0.791667Z" fill="#0C81F3"/>
<path d="M4.5 8L20.5 8" stroke="white" stroke-width="1.4" stroke-linecap="round"/>
<path d="M11.5 0.760431C11.5 1.18042 11.8244 1.52086 12.2247 1.52086H16.0928C16.7167 1.52086 17.2705 1.93975 17.4678 2.56079L18.7215 6.50747C19.3152 6.58241 19.8812 6.75145 20.4057 7L20.3791 6.91631L21.1375 6.45682C21.4842 6.24687 21.6029 5.78179 21.4028 5.41807C21.2027 5.05436 20.7595 4.92976 20.4129 5.13972L19.9113 5.44359L18.8428 2.07986C18.4482 0.837767 17.3405 0 16.0928 0H12.2247C11.8244 0 11.5 0.340457 11.5 0.760431Z" fill="#0C81F3"/>
<path d="M7.375 12.018C7.375 12.4362 7.03923 12.7752 6.625 12.7752H5.125C4.71078 12.7752 4.375 12.4362 4.375 12.018C4.375 11.5998 4.71078 11.2607 5.125 11.2607H6.625C7.03923 11.2607 7.375 11.5998 7.375 12.018Z" fill="white"/>
<circle cx="18" cy="12.5" r="6.5" fill="white"/>
<path d="M18 8.73633V16.8135M22.5 12.7749L13.5 12.7749" stroke="#0C81F3" stroke-width="1.5" stroke-linecap="round" stroke-linejoin="round"/>
</svg>
