<svg width="25" height="24" viewBox="0 0 25 24" fill="none" xmlns="http://www.w3.org/2000/svg">
<path fill-rule="evenodd" clip-rule="evenodd" d="M12.7103 6.25H10.3563C9.45262 6.24999 8.71569 6.24998 8.11418 6.31391C7.48591 6.38069 6.93908 6.52238 6.4348 6.8471C5.93051 7.17181 5.57525 7.611 5.25447 8.15532C4.94736 8.67645 4.64243 9.34732 4.26853 10.1699L3.73666 11.3401L2.48325 10.4C2.15188 10.1515 1.68178 10.2186 1.43325 10.55C1.18472 10.8814 1.25188 11.3515 1.58325 11.6L3.01566 12.6743L2.6897 13.1632C2.08311 14.0727 1.69128 14.6602 1.48707 15.3346C1.28285 16.0091 1.28302 16.829 1.28325 17.9222V21.75C1.28325 22.3023 1.73097 22.75 2.28325 22.75H4.03321C4.58549 22.75 5.03321 22.3023 5.03321 21.75V20.75C5.03321 20.1977 5.48092 19.75 6.03321 19.75H17.0332C17.5855 19.75 18.0332 20.1977 18.0332 20.75V21.75C18.0332 22.3023 18.481 22.75 19.0332 22.75H20.7833C21.3356 22.75 21.7833 22.3023 21.7833 21.75V17.8085C21.7835 16.7153 21.7837 16.0091 21.5795 15.3346C21.3753 14.6602 20.9834 14.0727 20.3768 13.1632L20.0509 12.6743L21.4833 11.6C21.8147 11.3515 21.8818 10.8814 21.6333 10.55C21.3848 10.2186 20.9147 10.1515 20.5833 10.4L19.3299 11.3401L18.798 10.1699C18.4242 9.34753 18.1191 8.67636 17.8121 8.15532C17.4913 7.611 17.136 7.17181 16.6317 6.8471C16.1275 6.52238 15.5806 6.38069 14.9524 6.31391C14.3509 6.24998 13.6139 6.24999 12.7103 6.25ZM6.27879 12.25L5.0879 11.9907L5.61663 10.8275C6.01136 9.95913 6.28416 9.36134 6.54608 8.91688C6.79892 8.48785 7.00865 8.26122 7.2462 8.10826C7.48375 7.9553 7.77685 7.85815 8.27205 7.80551C8.78506 7.75098 9.44214 7.75 10.3961 7.75H12.6691C13.623 7.75 14.2801 7.75098 14.7931 7.80551C15.2883 7.85815 15.5814 7.9553 15.819 8.10826C16.0565 8.26122 16.2663 8.48785 16.5191 8.91688C16.781 9.36134 17.0538 9.95912 17.4485 10.8275L17.9773 11.9907L16.7864 12.25H6.27879ZM17.0332 15C17.5855 15 18.0332 15.4477 18.0332 16V16.01C18.0332 16.5623 17.5855 17.01 17.0332 17.01C16.481 17.01 16.0332 16.5623 16.0332 16.01V16C16.0332 15.4477 16.481 15 17.0332 15ZM7.03321 16C7.03321 15.4477 6.58549 15 6.03321 15C5.48092 15 5.03321 15.4477 5.03321 16V16.01C5.03321 16.5623 5.48092 17.01 6.03321 17.01C6.58549 17.01 7.03321 16.5623 7.03321 16.01V16Z" fill="#1E2022"/>
<path fill-rule="evenodd" clip-rule="evenodd" d="M16.2832 5C16.2832 4.58579 16.619 4.25 17.0332 4.25C18.552 4.25 19.7832 5.48122 19.7832 7C19.7832 7.41421 19.4474 7.75 19.0332 7.75C18.619 7.75 18.2832 7.41421 18.2832 7C18.2832 6.30964 17.7236 5.75 17.0332 5.75C16.619 5.75 16.2832 5.41421 16.2832 5Z" fill="#1E2022"/>
<path fill-rule="evenodd" clip-rule="evenodd" d="M16.2832 2C16.2832 1.58579 16.619 1.25 17.0332 1.25C20.2088 1.25 22.7832 3.82436 22.7832 7C22.7832 7.41421 22.4474 7.75 22.0332 7.75C21.619 7.75 21.2832 7.41421 21.2832 7C21.2832 4.65279 19.3804 2.75 17.0332 2.75C16.619 2.75 16.2832 2.41421 16.2832 2Z" fill="#1E2022"/>
</svg>
