<svg width="24" height="25" viewBox="0 0 24 25" fill="none" xmlns="http://www.w3.org/2000/svg">
<g clip-path="url(#clip0_3650_11752)">
<path d="M9.75 3.78653C9.75 3.36832 9.41422 3.0293 9 3.0293H7.24673C5.95541 3.0293 4.809 3.86354 4.40066 5.10041L3.28263 8.48684L2.70038 8.14741C2.34165 7.93834 1.88296 8.06241 1.67586 8.42459C1.46875 8.78678 1.59165 9.2499 1.95038 9.45898L2.79846 9.95338L2.67706 10.3211C1.52753 10.9679 0.75 12.2076 0.75 13.6306V18.174C0.75 19.8468 2.09314 21.2029 3.75 21.2029C5.27985 21.2029 6.54225 20.0467 6.72679 18.5526H13.5527C13.2842 18.0839 13.076 17.5754 12.939 17.0381H6C5.58577 17.0381 5.25 17.3772 5.25 17.7954V18.174C5.25 19.0104 4.57841 19.6885 3.75 19.6885C2.92157 19.6885 2.25 19.0104 2.25 18.174V13.6306C2.25 12.376 3.25736 11.3589 4.5 11.3589H14.3929C15.0174 10.6931 15.79 10.1704 16.6574 9.84441H4.41559L5.82368 5.57932C6.02786 4.96089 6.60105 4.54377 7.24673 4.54377H9C9.41422 4.54377 9.75 4.20475 9.75 3.78653Z" fill="#0D274E"/>
<path d="M12 3.78653C12 4.20475 12.3358 4.54377 12.75 4.54377H16.7533C17.399 4.54377 17.9721 4.96089 18.1763 5.57932L19.4738 9.50941C20.0882 9.58403 20.6741 9.75237 21.2169 9.99987L21.1894 9.91654L21.9743 9.45898C22.333 9.2499 22.4559 8.78678 22.2488 8.42459C22.0417 8.06241 21.583 7.93834 21.2243 8.14741L20.7052 8.45L19.5993 5.10041C19.191 3.86354 18.0446 3.0293 16.7533 3.0293H12.75C12.3358 3.0293 12 3.36832 12 3.78653Z" fill="#0D274E"/>
<path d="M7.875 14.3881C7.875 14.8063 7.53923 15.1453 7.125 15.1453H5.625C5.21078 15.1453 4.875 14.8063 4.875 14.3881C4.875 13.9699 5.21078 13.6309 5.625 13.6309H7.125C7.53923 13.6309 7.875 13.9699 7.875 14.3881Z" fill="#0D274E"/>
<path d="M18.5 11.1064V19.1836M23 15.145L14 15.145" stroke="#0D274E" stroke-width="1.5" stroke-linecap="round" stroke-linejoin="round"/>
</g>
<defs>
<clipPath id="clip0_3650_11752">
<rect width="24" height="24.2315" fill="white"/>
</clipPath>
</defs>
</svg>
