<svg width="10" height="11" viewBox="0 0 10 11" fill="none" xmlns="http://www.w3.org/2000/svg">
<path d="M1.25 4.51717V7.01717V4.51717ZM5 2.43384V3.68384V2.43384ZM4.16667 2.43384H5.83333H4.16667ZM2.08333 5.76717H1.25H2.08333ZM2.5 4.51717H3.33333L4.16667 3.68384H5.57583C5.65319 3.68388 5.72901 3.70546 5.7948 3.74615C5.86059 3.78685 5.91375 3.84505 5.94833 3.91425L6.55167 5.12009C6.58625 5.18929 6.63941 5.2475 6.7052 5.28819C6.77099 5.32889 6.84681 5.35046 6.92417 5.3505H7.5V4.51717H8.33333C8.44384 4.51717 8.54982 4.56107 8.62796 4.63921C8.7061 4.71735 8.75 4.82333 8.75 4.93384V7.43384C8.75 7.54435 8.7061 7.65033 8.62796 7.72847C8.54982 7.80661 8.44384 7.85051 8.33333 7.85051H7.5V7.01717H6.25V7.85051C6.25 7.96101 6.2061 8.06699 6.12796 8.14513C6.04982 8.22327 5.94384 8.26717 5.83333 8.26717H4.38958C4.321 8.26718 4.25348 8.25026 4.19301 8.21792C4.13253 8.18557 4.08098 8.1388 4.04292 8.08176L3.33333 7.01717H2.5V4.51717Z" stroke="#474B54" stroke-width="0.789841" stroke-linecap="round" stroke-linejoin="round"/>
</svg>
