<svg width="25" height="24" viewBox="0 0 25 24" fill="none" xmlns="http://www.w3.org/2000/svg">
<path d="M12.8995 1.75C13.4454 1.75 13.9741 1.94268 14.3916 2.29395L23.375 9.85742C23.7196 10.2127 23.7458 10.7785 23.42 11.165C23.1097 11.5327 22.5861 11.6121 22.1836 11.3789V15.9531C22.1837 17.0533 22.1837 17.9608 22.1016 18.6885C22.0268 19.3517 21.8757 19.9581 21.5342 20.4961L21.376 20.7217C21.2202 20.9245 21.0447 21.1119 20.8526 21.2803L20.6534 21.4434C20.0603 21.8977 19.3768 22.0825 18.6182 22.168C17.894 22.2495 16.9921 22.249 15.8995 22.249V17C15.8995 15.5858 15.8993 14.8788 15.46 14.4395C15.0207 14.0002 14.3135 14 12.8995 14C11.4854 14 10.7782 14.0001 10.3389 14.4395C9.89967 14.8788 9.89943 15.5859 9.89943 17V22.249C8.80683 22.249 7.90487 22.2495 7.18068 22.168C6.51674 22.0932 5.90972 21.9427 5.37111 21.6016L5.14552 21.4434C4.94237 21.2876 4.75455 21.1119 4.58595 20.9199L4.42287 20.7217C3.96792 20.1292 3.78282 19.4463 3.69728 18.6885C3.61517 17.9608 3.61523 17.0533 3.61525 15.9531V11.3789C3.21275 11.6121 2.68915 11.5327 2.37892 11.165C2.03146 10.7528 2.0846 10.1364 2.49709 9.78906L11.4082 2.29395L11.5694 2.16992C11.9577 1.89775 12.4218 1.75 12.8995 1.75Z" fill="#1E2022"/>
<path d="M13.7923 2.80982L22.3875 9.59547C22.7111 9.85095 22.8999 10.2405 22.8999 10.6528C22.8999 11.3969 22.2968 12 21.5527 12H20.8999V15.5C20.8999 18.3284 20.8999 19.7426 20.0212 20.6213C19.1425 21.5 17.7283 21.5 14.8999 21.5H10.8999C8.07147 21.5 6.65726 21.5 5.77858 20.6213C4.8999 19.7426 4.8999 18.3284 4.8999 15.5V12H4.24706C3.50305 12 2.8999 11.3969 2.8999 10.6528C2.8999 10.2405 3.0887 9.85095 3.4123 9.59547L12.0075 2.80982C12.2616 2.60915 12.576 2.5 12.8999 2.5C13.2238 2.5 13.5382 2.60915 13.7923 2.80982Z" stroke="#1E2022" stroke-width="1.5" stroke-linecap="round" stroke-linejoin="round"/>
<path d="M15.3999 21.5V17C15.3999 16.0654 15.3999 15.5981 15.1989 15.25C15.0673 15.022 14.8779 14.8326 14.6499 14.701C14.3018 14.5 13.8345 14.5 12.8999 14.5C11.9653 14.5 11.498 14.5 11.1499 14.701C10.9219 14.8326 10.7325 15.022 10.6009 15.25C10.3999 15.5981 10.3999 16.0654 10.3999 17V21.5" stroke="#1E2022" stroke-width="1.5" stroke-linecap="round" stroke-linejoin="round"/>
</svg>
