<svg width="11" height="11" viewBox="0 0 11 11" fill="none" xmlns="http://www.w3.org/2000/svg">
<path d="M2.71381 3.684C3.17405 3.684 3.54714 3.3109 3.54714 2.85067C3.54714 2.39043 3.17405 2.01733 2.71381 2.01733C2.25357 2.01733 1.88048 2.39043 1.88048 2.85067C1.88048 3.3109 2.25357 3.684 2.71381 3.684Z" stroke="#474B54" stroke-width="0.789841" stroke-linecap="round" stroke-linejoin="round"/>
<path d="M5.63048 3.684C6.09071 3.684 6.46381 3.3109 6.46381 2.85067C6.46381 2.39043 6.09071 2.01733 5.63048 2.01733C5.17024 2.01733 4.79714 2.39043 4.79714 2.85067C4.79714 3.3109 5.17024 3.684 5.63048 3.684Z" stroke="#474B54" stroke-width="0.789841" stroke-linecap="round" stroke-linejoin="round"/>
<path d="M8.54714 3.684C9.00738 3.684 9.38048 3.3109 9.38048 2.85067C9.38048 2.39043 9.00738 2.01733 8.54714 2.01733C8.08691 2.01733 7.71381 2.39043 7.71381 2.85067C7.71381 3.3109 8.08691 3.684 8.54714 3.684Z" stroke="#474B54" stroke-width="0.789841" stroke-linecap="round" stroke-linejoin="round"/>
<path d="M2.71381 8.68376C3.17405 8.68376 3.54714 8.31066 3.54714 7.85042C3.54714 7.39019 3.17405 7.01709 2.71381 7.01709C2.25357 7.01709 1.88048 7.39019 1.88048 7.85042C1.88048 8.31066 2.25357 8.68376 2.71381 8.68376Z" stroke="#474B54" stroke-width="0.789841" stroke-linecap="round" stroke-linejoin="round"/>
<path d="M5.63048 8.68376C6.09071 8.68376 6.46381 8.31066 6.46381 7.85042C6.46381 7.39019 6.09071 7.01709 5.63048 7.01709C5.17024 7.01709 4.79714 7.39019 4.79714 7.85042C4.79714 8.31066 5.17024 8.68376 5.63048 8.68376Z" stroke="#474B54" stroke-width="0.789841" stroke-linecap="round" stroke-linejoin="round"/>
<path d="M8.54714 3.68384V4.51717C8.54714 4.73818 8.45935 4.95015 8.30307 5.10643C8.14679 5.26271 7.93482 5.3505 7.71381 5.3505H2.71381M2.71381 3.68384V7.01717V3.68384ZM5.63048 3.68384V7.01717V3.68384Z" stroke="#474B54" stroke-width="0.789841" stroke-linecap="round" stroke-linejoin="round"/>
</svg>
