<svg width="20" height="19" viewBox="0 0 20 19" fill="none" xmlns="http://www.w3.org/2000/svg">
<path fill-rule="evenodd" clip-rule="evenodd" d="M9 0.5H11C15.9706 0.5 20 4.52944 20 9.5C20 14.4706 15.9706 18.5 11 18.5H4C1.79086 18.5 0 16.7091 0 14.5V9.5C0 4.52944 4.02944 0.5 9 0.5ZM6.54716 10.987C6.26386 10.6849 5.78923 10.6696 5.48705 10.9528C5.18486 11.2361 5.16955 11.7108 5.45285 12.013C6.8038 13.454 8.36472 14.25 10 14.25C11.6353 14.25 13.1962 13.454 14.5472 12.013C14.8305 11.7108 14.8151 11.2361 14.513 10.9528C14.2108 10.6696 13.7361 10.6849 13.4528 10.987C12.3038 12.2127 11.1147 12.75 10 12.75C8.88528 12.75 7.6962 12.2127 6.54716 10.987Z" fill="#405FF2"/>
</svg>
