<svg width="25" height="24" viewBox="0 0 25 24" fill="none" xmlns="http://www.w3.org/2000/svg">
<path d="M19.6057 18.9361C21.6519 17.0704 16.6851 14.5564 16.6851 14.5564C15.6662 14.0611 14.1379 13.5004 12.1001 13.5C10.0623 13.5004 8.53402 14.0617 7.51514 14.5571C7.51514 14.5571 2.54831 17.071 4.59449 18.9368C5.59403 19.8482 6.70727 20.5 8.10687 20.5L16.0933 20.4994C17.4929 20.4994 18.6062 19.8475 19.6057 18.9361Z" fill="#1E2022" stroke="#1E2022" stroke-linecap="round" stroke-linejoin="round"/>
<path d="M15.6001 7C15.6001 8.933 14.0331 10.5 12.1001 10.5C10.1671 10.5 8.6001 8.933 8.6001 7C8.6001 5.067 10.1671 3.5 12.1001 3.5C14.0331 3.5 15.6001 5.067 15.6001 7Z" fill="#1E2022" stroke="#1E2022" stroke-width="1.5" stroke-linecap="round" stroke-linejoin="round"/>
<path d="M18.1001 8H23.1001" stroke="#1E2022" stroke-width="1.5" stroke-linecap="round" stroke-linejoin="round"/>
<path d="M18.1001 11H23.1001" stroke="#1E2022" stroke-width="1.5" stroke-linecap="round" stroke-linejoin="round"/>
<path d="M21.1001 14H23.1001" stroke="#1E2022" stroke-width="1.5" stroke-linecap="round" stroke-linejoin="round"/>
</svg>
