<svg width="16" height="16" viewBox="0 0 16 16" fill="none" xmlns="http://www.w3.org/2000/svg">
<path d="M10 10L11 11" stroke="#1E2022" stroke-width="1.25" stroke-linecap="round" stroke-linejoin="round"/>
<path d="M11.2889 12.6834C10.9037 12.2983 10.9037 11.6739 11.2889 11.2889C11.6739 10.9037 12.2983 10.9037 12.6834 11.2889L14.0445 12.6499C14.4296 13.035 14.4296 13.6594 14.0445 14.0445C13.6594 14.4296 13.035 14.4296 12.6499 14.0445L11.2889 12.6834Z" stroke="#1E2022" stroke-width="1.25" stroke-linecap="round" stroke-linejoin="round"/>
<path d="M10.9997 6.33317C10.9997 3.75584 8.91041 1.6665 6.33307 1.6665C3.75575 1.6665 1.66641 3.75584 1.66641 6.33317C1.66641 8.9105 3.75575 10.9998 6.33307 10.9998C8.91041 10.9998 10.9997 8.9105 10.9997 6.33317Z" stroke="#1E2022" stroke-width="1.25" stroke-linecap="round" stroke-linejoin="round"/>
</svg>
