<svg width="21" height="21" viewBox="0 0 21 21" fill="none" xmlns="http://www.w3.org/2000/svg">
<path d="M20.9777 0.638523C20.8704 0.189304 20.3768 -0.116359 19.9291 0.0425213C19.9291 0.0425213 0.536384 6.88565 0.533157 6.88807C0.235503 6.99856 0.0169007 7.28244 0.000767736 7.60746C-0.013752 7.91958 0.179037 8.24459 0.463785 8.37686L7.97531 11.8827C7.97531 11.8827 11.6351 8.22363 11.6415 8.21717C12.3675 7.49133 13.5267 8.61397 12.7821 9.35756L9.11592 13.0231C9.11592 13.0231 12.6176 20.5251 12.624 20.5372C12.7668 20.8114 13.0459 20.9856 13.3524 20.9993C13.6856 21.0147 13.9937 20.7598 14.1131 20.4614C14.1131 20.4614 20.9535 1.08371 20.9575 1.07161C21.0084 0.932087 21.0116 0.781273 20.9777 0.638523Z" fill="white"/>
</svg>
