<svg width="11" height="11" viewBox="0 0 11 11" fill="none" xmlns="http://www.w3.org/2000/svg">
<g clip-path="url(#clip0_725_19611)">
<path d="M6.31524 5.60059L7.81524 3.85059M6.52952 6.47559C6.52952 6.95885 6.14578 7.35059 5.67238 7.35059C5.19898 7.35059 4.81524 6.95885 4.81524 6.47559C4.81524 5.99232 5.19898 5.60059 5.67238 5.60059C6.14578 5.60059 6.52952 5.99232 6.52952 6.47559Z" stroke="#474B54" stroke-width="0.75" stroke-linecap="round"/>
<path d="M3.31524 5.35059C3.31524 3.96987 4.50915 2.85059 5.98191 2.85059C6.46764 2.85059 6.92302 2.97233 7.31524 3.18504" stroke="#474B54" stroke-width="0.75" stroke-linecap="round"/>
<path d="M1.81524 5.35059C1.81524 3.46496 1.81524 2.52216 2.40102 1.93637C2.98681 1.35059 3.92962 1.35059 5.81525 1.35059C7.70084 1.35059 8.64366 1.35059 9.22943 1.93637C9.81524 2.52216 9.81524 3.46496 9.81524 5.35059C9.81524 7.23619 9.81524 8.17901 9.22943 8.76478C8.64366 9.35059 7.70084 9.35059 5.81525 9.35059C3.92962 9.35059 2.98681 9.35059 2.40102 8.76478C1.81524 8.17901 1.81524 7.23619 1.81524 5.35059Z" stroke="#474B54" stroke-width="0.75"/>
</g>
<defs>
<clipPath id="clip0_725_19611">
<rect width="10" height="10" fill="white" transform="translate(0.815239 0.350586)"/>
</clipPath>
</defs>
</svg>
