<svg width="20" height="20" viewBox="0 0 20 20" fill="none" xmlns="http://www.w3.org/2000/svg">
<g clip-path="url(#clip0_725_26358)">
<path d="M7.50008 11.6667C8.88079 11.6667 10.0001 12.786 10.0001 14.1667C10.0001 14.627 9.62699 15.0001 9.16675 15.0001H5.83341C5.37318 15.0001 5.00008 14.627 5.00008 14.1667C5.00008 12.786 6.11937 11.6667 7.50008 11.6667ZM7.50008 11.6667C8.42056 11.6667 9.16675 10.9206 9.16675 10.0001C9.16675 9.07961 8.42056 8.33342 7.50008 8.33342C6.57961 8.33342 5.83341 9.07961 5.83341 10.0001C5.83341 10.9206 6.57961 11.6667 7.50008 11.6667ZM15.0001 10.0001L12.5001 10.0001M15.0001 13.3334L12.5001 13.3334M4.16675 18.3334H15.8334C17.2141 18.3334 18.3334 17.2141 18.3334 15.8334V7.50008C18.3334 6.11937 17.2141 5.00008 15.8334 5.00008H4.16675C2.78604 5.00008 1.66675 6.11937 1.66675 7.50008V15.8334C1.66675 17.2141 2.78604 18.3334 4.16675 18.3334ZM11.6667 5.00008V3.33341C11.6667 2.41294 10.9206 1.66675 10.0001 1.66675C9.07961 1.66675 8.33342 2.41294 8.33342 3.33341V5.00008H11.6667Z" stroke="#474B54" stroke-width="1.5" stroke-linecap="round"/>
</g>
<defs>
<clipPath id="clip0_725_26358">
<rect width="20" height="20" fill="white"/>
</clipPath>
</defs>
</svg>
