<svg width="24" height="24" viewBox="0 0 24 24" fill="none" xmlns="http://www.w3.org/2000/svg">
<g clip-path="url(#clip0_725_26671)">
<path d="M0.990732 11.8563C0.990193 13.8728 1.49907 15.8417 2.46669 17.5771L0.898193 23.5066L6.75888 21.9156C8.37988 22.8292 10.1961 23.308 12.0417 23.3081H12.0465C18.1393 23.3081 23.0989 18.1748 23.1015 11.8653C23.1027 8.80792 21.9538 5.93295 19.8664 3.76997C17.7793 1.60718 15.0036 0.415458 12.0461 0.414062C5.95262 0.414062 0.993338 5.54709 0.990822 11.8563" fill="#1FAF38"/>
<path d="M0.596133 11.8527C0.595504 13.9417 1.12262 15.981 2.12473 17.7786L0.5 23.9207L6.57083 22.2726C8.24354 23.2168 10.1268 23.7147 12.0432 23.7154H12.0482C18.3595 23.7154 23.4973 18.3975 23.5 11.8621C23.5011 8.69488 22.3108 5.71656 20.1488 3.47609C17.9866 1.23591 15.1116 0.00130233 12.0482 0C5.73573 0 0.598648 5.31721 0.596133 11.8527ZM4.21154 17.469L3.98486 17.0965C3.03198 15.5277 2.52903 13.7149 2.52975 11.8534C2.53173 6.4213 6.80146 2.00186 12.0518 2.00186C14.5943 2.00298 16.9838 3.02921 18.781 4.89116C20.5782 6.7533 21.5671 9.22865 21.5665 11.8614C21.5641 17.2935 17.2943 21.7135 12.0482 21.7135H12.0444C10.3362 21.7126 8.66087 21.2376 7.19983 20.34L6.85213 20.1265L3.24958 21.1045L4.21154 17.469Z" fill="url(#paint0_linear_725_26671)"/>
<path d="M9.18332 6.89746C8.96895 6.40416 8.74336 6.39421 8.5395 6.38556C8.37257 6.37811 8.18174 6.37867 7.99109 6.37867C7.80027 6.37867 7.49021 6.453 7.22814 6.74928C6.9658 7.04583 6.22656 7.76249 6.22656 9.22007C6.22656 10.6776 7.25195 12.0864 7.39489 12.2843C7.53801 12.4817 9.37442 15.5686 12.2828 16.7562C14.7 17.743 15.1919 17.5468 15.7165 17.4973C16.2412 17.448 17.4095 16.7808 17.6479 16.089C17.8864 15.3973 17.8864 14.8043 17.8149 14.6804C17.7434 14.557 17.5525 14.4829 17.2664 14.3348C16.9802 14.1867 15.5734 13.4698 15.3111 13.371C15.0488 13.2722 14.858 13.2229 14.6672 13.5195C14.4764 13.8157 13.9284 14.4829 13.7614 14.6804C13.5946 14.8785 13.4275 14.9031 13.1415 14.755C12.8551 14.6063 11.9336 14.2938 10.8403 13.2846C9.98967 12.4993 9.41539 11.5296 9.24846 11.2329C9.08153 10.9367 9.23058 10.7762 9.37406 10.6285C9.50262 10.4958 9.6603 10.2826 9.80351 10.1096C9.94618 9.93663 9.9938 9.81318 10.0892 9.6156C10.1847 9.41783 10.1369 9.24481 10.0655 9.09663C9.9938 8.94844 9.43776 7.48323 9.18332 6.89746Z" fill="white"/>
</g>
<defs>
<linearGradient id="paint0_linear_725_26671" x1="1150.5" y1="2392.07" x2="1150.5" y2="0" gradientUnits="userSpaceOnUse">
<stop stop-color="#F9F9F9"/>
<stop offset="1" stop-color="white"/>
</linearGradient>
<clipPath id="clip0_725_26671">
<rect width="23" height="24" fill="white" transform="translate(0.5)"/>
</clipPath>
</defs>
</svg>
